<svg width="242" height="80" fill="none" xmlns="http://www.w3.org/2000/svg"><path d="M47.704 69.144c-.824 0-1.548-.18-2.172-.54a3.894 3.894 0 01-1.452-1.536c-.344-.656-.516-1.412-.516-2.268 0-.856.172-1.608.516-2.256a3.894 3.894 0 011.452-1.536c.624-.368 1.348-.552 2.172-.552.832 0 1.556.184 2.172.552.624.368 1.108.88 1.452 1.536.344.648.516 1.4.516 2.256 0 .856-.172 1.612-.516 2.268a3.786 3.786 0 01-1.452 1.536c-.616.36-1.34.54-2.172.54zm0-.888c.616 0 1.156-.136 1.62-.408.472-.28.836-.676 1.092-1.188.264-.52.396-1.14.396-1.86 0-.72-.132-1.336-.396-1.848a2.73 2.73 0 00-1.092-1.176c-.464-.28-1.004-.42-1.62-.42-.616 0-1.16.14-1.632.42a2.828 2.828 0 00-1.092 1.176c-.256.512-.384 1.128-.384 1.848 0 .72.128 1.34.384 1.86.264.512.628.908 1.092 1.188.472.272 1.016.408 1.632.408zm5.858.744v-5.1h-.9v-.852h.9v-1.032c0-.576.144-.996.432-1.26.288-.264.708-.396 1.26-.396h.6v.864h-.444c-.304 0-.52.064-.648.192-.128.12-.192.328-.192.624v1.008h1.464v.852H54.57V69h-1.008zm3.996 0v-5.1h-.9v-.852h.9v-1.032c0-.576.144-.996.432-1.26.288-.264.708-.396 1.26-.396h.6v.864h-.444c-.304 0-.52.064-.648.192-.128.12-.192.328-.192.624v1.008h3.696V69h-1.008v-5.1h-2.688V69h-1.008zm4.212-7.092a.692.692 0 01-.492-.192.685.685 0 01-.204-.504c0-.192.068-.352.204-.48a.692.692 0 01.492-.192c.2 0 .364.064.492.192a.632.632 0 01.204.48c0 .2-.068.368-.204.504a.666.666 0 01-.492.192zm5.009 7.236c-.568 0-1.08-.128-1.536-.384a2.916 2.916 0 01-1.068-1.092c-.256-.472-.384-1.02-.384-1.644 0-.624.128-1.168.384-1.632.264-.472.62-.836 1.068-1.092a3.01 3.01 0 011.536-.396c.704 0 1.296.184 1.776.552.488.368.796.86.924 1.476h-1.032a1.301 1.301 0 00-.588-.852 1.922 1.922 0 00-1.092-.312 1.89 1.89 0 00-.948.252 1.88 1.88 0 00-.72.756c-.184.336-.276.752-.276 1.248s.092.912.276 1.248c.184.336.424.592.72.768.296.168.612.252.948.252.416 0 .78-.1 1.092-.3.312-.208.508-.5.588-.876h1.032c-.12.6-.424 1.088-.912 1.464-.488.376-1.084.564-1.788.564zm4.72-7.416a.707.707 0 01-.504-.192.707.707 0 01-.192-.504c0-.192.064-.352.192-.48a.707.707 0 01.504-.192c.192 0 .356.064.492.192a.632.632 0 01.204.48c0 .2-.068.368-.204.504a.692.692 0 01-.492.192zM70.995 69v-5.952h1.008V69h-1.008zm4.743.144c-.496 0-.908-.084-1.236-.252a1.713 1.713 0 01-.972-1.584c0-.608.232-1.076.696-1.404.464-.328 1.096-.492 1.896-.492h1.608v-.072c0-.52-.136-.912-.408-1.176-.272-.272-.636-.408-1.092-.408-.392 0-.732.1-1.02.3-.28.192-.456.476-.528.852H73.65c.04-.432.184-.796.432-1.092.256-.296.572-.52.948-.672.376-.16.776-.24 1.2-.24.832 0 1.456.224 1.872.672.424.44.636 1.028.636 1.764V69h-.9l-.06-1.068a2.39 2.39 0 01-.744.864c-.32.232-.752.348-1.296.348zm.156-.852c.384 0 .712-.1.984-.3.28-.2.492-.46.636-.78a2.43 2.43 0 00.216-1.008v-.012h-1.524c-.592 0-1.012.104-1.26.312-.24.2-.36.452-.36.756 0 .312.112.564.336.756.232.184.556.276.972.276zM80.25 69v-8.64h1.008V69H80.25zm2.66 0v-8.64h1.008V69H82.91zm3.308 2.64l1.476-3.216h-.348l-2.364-5.376h1.092l1.968 4.632 2.088-4.632h1.044l-3.9 8.592h-1.056zM94.946 69l3.096-8.4h1.068l3.084 8.4h-1.068l-.768-2.16h-3.576l-.78 2.16h-1.056zm2.136-2.976h2.976l-1.488-4.152-1.488 4.152zm8.344 3.12c-.704 0-1.264-.212-1.68-.636-.416-.432-.624-1.092-.624-1.98v-3.48h1.008v3.372c0 1.24.508 1.86 1.524 1.86.52 0 .948-.184 1.284-.552.344-.376.516-.908.516-1.596v-3.084h1.008V69h-.912l-.072-1.068c-.184.376-.46.672-.828.888-.36.216-.768.324-1.224.324zm7.047-.144c-.544 0-.972-.132-1.284-.396-.312-.264-.468-.74-.468-1.428V63.9h-1.032v-.852h1.032l.132-1.428h.876v1.428h1.752v.852h-1.752v3.276c0 .376.076.632.228.768.152.128.42.192.804.192h.624V69h-.912zm2.289 0v-8.64h1.008v3.708c.2-.368.484-.652.852-.852a2.398 2.398 0 011.2-.312c.688 0 1.24.216 1.656.648.416.424.624 1.08.624 1.968V69h-.996v-3.372c0-1.24-.5-1.86-1.5-1.86-.52 0-.956.188-1.308.564-.352.368-.528.896-.528 1.584V69h-1.008zm9.579.144c-.56 0-1.064-.128-1.512-.384a2.827 2.827 0 01-1.068-1.08c-.256-.472-.384-1.024-.384-1.656 0-.632.132-1.18.396-1.644.264-.472.62-.836 1.068-1.092a3.06 3.06 0 011.524-.384c.56 0 1.064.128 1.512.384.448.256.8.62 1.056 1.092.264.464.396 1.012.396 1.644 0 .632-.132 1.184-.396 1.656a2.802 2.802 0 01-1.08 1.08 2.993 2.993 0 01-1.512.384zm0-.864c.344 0 .664-.084.96-.252a1.88 1.88 0 00.72-.756c.184-.336.276-.752.276-1.248s-.092-.912-.276-1.248a1.803 1.803 0 00-.708-.756 1.89 1.89 0 00-.948-.252c-.344 0-.664.084-.96.252a1.88 1.88 0 00-.72.756c-.184.336-.276.752-.276 1.248s.092.912.276 1.248c.184.336.42.588.708.756.296.168.612.252.948.252zm4.389.72v-5.952h.912l.084 1.14c.184-.392.464-.704.84-.936.376-.232.84-.348 1.392-.348v1.056h-.276c-.352 0-.676.064-.972.192-.296.12-.532.328-.708.624-.176.296-.264.704-.264 1.224v3h-1.008zm4.972-7.272a.707.707 0 01-.504-.192.707.707 0 01-.192-.504c0-.192.064-.352.192-.48a.707.707 0 01.504-.192c.192 0 .356.064.492.192a.632.632 0 01.204.48c0 .2-.068.368-.204.504a.692.692 0 01-.492.192zM133.198 69v-5.952h1.008V69h-1.008zm5.043.144c-.712 0-1.304-.18-1.776-.54-.472-.36-.748-.848-.828-1.464h1.032c.064.312.228.584.492.816.272.224.636.336 1.092.336.424 0 .736-.088.936-.264.2-.184.3-.4.3-.648 0-.36-.132-.6-.396-.72-.256-.12-.62-.228-1.092-.324a6.189 6.189 0 01-.96-.276 2.221 2.221 0 01-.804-.504c-.216-.224-.324-.516-.324-.876 0-.52.192-.944.576-1.272.392-.336.92-.504 1.584-.504.632 0 1.148.16 1.548.48.408.312.644.76.708 1.344h-.996a1.008 1.008 0 00-.396-.708c-.216-.176-.508-.264-.876-.264-.36 0-.64.076-.84.228a.728.728 0 00-.288.6c0 .24.124.428.372.564.256.136.6.252 1.032.348.368.08.716.18 1.044.3.336.112.608.284.816.516.216.224.324.552.324.984.008.536-.196.98-.612 1.332-.408.344-.964.516-1.668.516zm6.396 0c-.568 0-1.072-.128-1.512-.384a2.856 2.856 0 01-1.044-1.092c-.248-.464-.372-1.012-.372-1.644 0-.624.124-1.168.372-1.632a2.667 2.667 0 011.032-1.092c.448-.264.964-.396 1.548-.396.576 0 1.072.132 1.488.396.424.256.748.596.972 1.02a2.885 2.885 0 01.324 1.632v.3h-4.74c.024.456.128.836.312 1.14.192.296.428.52.708.672.288.152.592.228.912.228.416 0 .764-.096 1.044-.288.28-.192.484-.452.612-.78h.996a2.705 2.705 0 01-.924 1.38c-.448.36-1.024.54-1.728.54zm0-5.388c-.48 0-.908.148-1.284.444-.368.288-.58.712-.636 1.272h3.744c-.024-.536-.208-.956-.552-1.26-.344-.304-.768-.456-1.272-.456zm6.856 5.388c-.592 0-1.112-.136-1.56-.408a2.835 2.835 0 01-1.032-1.116c-.24-.472-.36-1.008-.36-1.608 0-.6.124-1.132.372-1.596a2.75 2.75 0 011.032-1.104c.44-.272.96-.408 1.56-.408.488 0 .92.1 1.296.3.376.2.668.48.876.84V60.36h1.008V69h-.912l-.096-.984c-.192.288-.468.548-.828.78-.36.232-.812.348-1.356.348zm.108-.876c.4 0 .752-.092 1.056-.276.312-.192.552-.456.72-.792.176-.336.264-.728.264-1.176 0-.448-.088-.84-.264-1.176a1.837 1.837 0 00-.72-.78 1.935 1.935 0 00-1.056-.288c-.392 0-.744.096-1.056.288a1.942 1.942 0 00-.72.78c-.168.336-.252.728-.252 1.176 0 .448.084.84.252 1.176.176.336.416.6.72.792a2.04 2.04 0 001.056.276zm7.963.732v-8.4h2.76c.656 0 1.196.108 1.62.324.424.216.736.508.936.876.208.368.312.784.312 1.248 0 .456-.1.868-.3 1.236-.2.368-.512.664-.936.888-.424.216-.968.324-1.632.324h-1.752V69h-1.008zm1.008-4.356h1.728c.672 0 1.148-.14 1.428-.42.288-.288.432-.68.432-1.176 0-.504-.144-.896-.432-1.176-.28-.288-.756-.432-1.428-.432h-1.728v3.204zm7.58 4.5c-.496 0-.908-.084-1.236-.252a1.713 1.713 0 01-.972-1.584c0-.608.232-1.076.696-1.404.464-.328 1.096-.492 1.896-.492h1.608v-.072c0-.52-.136-.912-.408-1.176-.272-.272-.636-.408-1.092-.408-.392 0-.732.1-1.02.3-.28.192-.456.476-.528.852h-1.032c.04-.432.184-.796.432-1.092.256-.296.572-.52.948-.672.376-.16.776-.24 1.2-.24.832 0 1.456.224 1.872.672.424.44.636 1.028.636 1.764V69h-.9l-.06-1.068a2.39 2.39 0 01-.744.864c-.32.232-.752.348-1.296.348zm.156-.852c.384 0 .712-.1.984-.3.28-.2.492-.46.636-.78a2.43 2.43 0 00.216-1.008v-.012h-1.524c-.592 0-1.012.104-1.26.312-.24.2-.36.452-.36.756 0 .312.112.564.336.756.232.184.556.276.972.276zm4.356.708v-5.952h.912l.084 1.14c.184-.392.464-.704.84-.936.376-.232.84-.348 1.392-.348v1.056h-.276c-.352 0-.676.064-.972.192-.296.12-.532.328-.708.624-.176.296-.264.704-.264 1.224v3h-1.008zm6.711 0c-.544 0-.972-.132-1.284-.396-.312-.264-.468-.74-.468-1.428V63.9h-1.032v-.852h1.032l.132-1.428h.876v1.428h1.752v.852h-1.752v3.276c0 .376.076.632.228.768.152.128.42.192.804.192h.624V69h-.912zm2.289 0v-5.952h.912l.06 1.068c.192-.376.468-.672.828-.888.36-.216.768-.324 1.224-.324.704 0 1.264.216 1.68.648.424.424.636 1.08.636 1.968V69h-1.008v-3.372c0-1.24-.512-1.86-1.536-1.86-.512 0-.94.188-1.284.564-.336.368-.504.896-.504 1.584V69h-1.008zm9.543.144c-.568 0-1.072-.128-1.512-.384a2.856 2.856 0 01-1.044-1.092c-.248-.464-.372-1.012-.372-1.644 0-.624.124-1.168.372-1.632a2.667 2.667 0 011.032-1.092c.448-.264.964-.396 1.548-.396.576 0 1.072.132 1.488.396.424.256.748.596.972 1.02a2.885 2.885 0 01.324 1.632v.3h-4.74c.024.456.128.836.312 1.14.192.296.428.52.708.672.288.152.592.228.912.228.416 0 .764-.096 1.044-.288.28-.192.484-.452.612-.78h.996a2.705 2.705 0 01-.924 1.38c-.448.36-1.024.54-1.728.54zm0-5.388c-.48 0-.908.148-1.284.444-.368.288-.58.712-.636 1.272h3.744c-.024-.536-.208-.956-.552-1.26-.344-.304-.768-.456-1.272-.456zM195.363 69v-5.952h.912l.084 1.14c.184-.392.464-.704.84-.936.376-.232.84-.348 1.392-.348v1.056h-.276c-.352 0-.676.064-.972.192-.296.12-.532.328-.708.624-.176.296-.264.704-.264 1.224v3h-1.008z" fill="#707070"/><path d="M67.487 44.59V27.327h6.076c.82 0 1.584.136 2.29.41a5.5 5.5 0 011.882 1.109c.53.482.948 1.06 1.254 1.736.305.66.458 1.39.458 2.194 0 .82-.153 1.568-.458 2.243a5.302 5.302 0 01-1.254 1.712c-.53.482-1.158.86-1.881 1.133a6.65 6.65 0 01-2.29.386h-2.822v6.342h-3.255zm6.124-9.428c.852 0 1.495-.24 1.93-.723a2.414 2.414 0 00.65-1.664c0-.305-.056-.602-.168-.892a1.768 1.768 0 00-.483-.747 2.161 2.161 0 00-.795-.53c-.322-.13-.7-.194-1.134-.194h-2.87v4.75h2.87zm14.571 8.175h-.193c-.37.45-.82.836-1.35 1.157-.514.322-1.181.483-2.001.483a4.82 4.82 0 01-1.737-.314 4.34 4.34 0 01-1.398-.82 3.722 3.722 0 01-.94-1.278 3.939 3.939 0 01-.338-1.64c0-.61.12-1.157.362-1.64a3.723 3.723 0 011.012-1.277 4.41 4.41 0 011.52-.796 6.219 6.219 0 011.928-.29c.772 0 1.407.065 1.906.194a8.33 8.33 0 011.23.361v-.361c0-.627-.25-1.142-.748-1.544-.499-.418-1.118-.627-1.857-.627-1.093 0-2.017.459-2.773 1.375l-2.29-1.567c1.253-1.576 2.965-2.364 5.135-2.364 1.833 0 3.232.434 4.196 1.303.965.852 1.447 2.122 1.447 3.81v7.089h-3.11v-1.254zm0-3.545a5.826 5.826 0 00-1.157-.41 4.555 4.555 0 00-1.278-.168c-.756 0-1.343.168-1.76.506-.402.322-.603.723-.603 1.206 0 .482.193.868.578 1.157.402.29.86.434 1.375.434.418 0 .804-.072 1.157-.217.354-.16.651-.362.892-.603a2.57 2.57 0 00.58-.868 2.61 2.61 0 00.216-1.037zm8.588-5.377h.193a3.604 3.604 0 011.399-1.423 4.008 4.008 0 012.074-.554c.273 0 .49.008.651.024.16.016.313.048.458.096v3.135a2.965 2.965 0 00-.603-.193 3.497 3.497 0 00-.772-.072c-.996 0-1.784.305-2.363.916-.562.595-.844 1.415-.844 2.46v5.787h-3.158V32.775h2.965v1.64zm8.271 1.061h-2.073v-2.7h2.073v-3.618h3.159v3.617h2.894v2.701H108.2v4.582c0 .273.024.53.073.771.064.225.176.418.337.579.225.257.547.386.965.386.273 0 .49-.024.651-.073a2.53 2.53 0 00.458-.24l.892 2.772a4.82 4.82 0 01-1.206.386 6.226 6.226 0 01-1.398.145 4.665 4.665 0 01-1.616-.265 3.58 3.58 0 01-1.181-.772c-.756-.724-1.134-1.752-1.134-3.087v-5.184zm11.463-1.157h.193a3.912 3.912 0 011.495-1.399c.627-.354 1.342-.53 2.146-.53.739 0 1.39.12 1.953.361a3.431 3.431 0 011.375 1.037c.369.434.643.965.819 1.592.193.61.29 1.294.29 2.05v7.16h-3.159v-6.775c0-.852-.193-1.479-.579-1.88-.37-.419-.916-.628-1.64-.628a2.29 2.29 0 00-1.157.29 2.654 2.654 0 00-.844.747 3.543 3.543 0 00-.53 1.11 5.159 5.159 0 00-.169 1.35v5.787h-3.159V32.775h2.966v1.544zm22.069 7.426a6.583 6.583 0 01-2.219 2.34c-.916.594-2.041.892-3.375.892a6.747 6.747 0 01-2.508-.458 6.199 6.199 0 01-1.978-1.327 6.215 6.215 0 01-1.326-1.977 6.831 6.831 0 01-.458-2.532c0-.852.153-1.656.458-2.411a6.03 6.03 0 011.278-2.002 6.134 6.134 0 011.929-1.374 6.023 6.023 0 012.484-.507c.948 0 1.792.161 2.532.483.739.305 1.358.74 1.857 1.302a5.48 5.48 0 011.133 1.953c.257.756.386 1.575.386 2.46v.289a1.632 1.632 0 00-.024.265 1.36 1.36 0 00-.024.266h-8.898c.064.482.193.9.386 1.253.209.338.458.627.747.869.305.224.635.393.989.506.353.096.715.145 1.085.145.723 0 1.318-.161 1.784-.483.482-.337.86-.755 1.134-1.254l2.628 1.303zm-2.87-4.581a1.914 1.914 0 00-.217-.7 2.197 2.197 0 00-.53-.723 2.606 2.606 0 00-.868-.554c-.338-.145-.748-.217-1.23-.217-.675 0-1.27.193-1.784.578-.515.386-.876.925-1.085 1.616h5.714zm5.08-4.389h2.966v1.64h.193c.145-.29.338-.555.579-.796a4.25 4.25 0 01.796-.627 4.23 4.23 0 01.964-.41 3.934 3.934 0 011.037-.144c.418 0 .772.04 1.061.12.305.08.563.185.772.314l-.844 2.87a2.586 2.586 0 00-.651-.218 3.134 3.134 0 00-.844-.096c-.434 0-.828.088-1.182.265a2.58 2.58 0 00-.916.7 3.686 3.686 0 00-.579 1.084 4.322 4.322 0 00-.193 1.327v5.787h-3.159V32.775zM80.825 10.633c0 1.872-.556 3.364-1.666 4.474-1.248 1.323-2.89 1.985-4.924 1.985-1.946 0-3.594-.674-4.942-2.022-1.347-1.348-2.021-3.008-2.021-4.98 0-1.971.674-3.631 2.021-4.979 1.348-1.348 2.996-2.022 4.942-2.022a7.44 7.44 0 012.79.525c.873.349 1.59.842 2.152 1.478l-1.235 1.236c-.412-.5-.948-.886-1.61-1.16a5.125 5.125 0 00-2.096-.431c-1.46 0-2.696.505-3.707 1.516-.998 1.023-1.498 2.303-1.498 3.838 0 1.535.5 2.814 1.498 3.837 1.01 1.011 2.246 1.516 3.707 1.516 1.335 0 2.445-.374 3.332-1.123.886-.749 1.397-1.778 1.535-3.089h-4.867v-1.61h6.495c.063.35.094.687.094 1.011zm1.177 1.573c0-1.41.443-2.577 1.33-3.5.898-.924 2.027-1.386 3.388-1.386 1.36 0 2.483.462 3.37 1.385.898.924 1.347 2.09 1.347 3.5 0 1.424-.45 2.59-1.348 3.502-.886.923-2.01 1.385-3.37 1.385-1.36 0-2.49-.462-3.388-1.385-.886-.924-1.329-2.09-1.329-3.501zm1.723 0c0 .986.287 1.785.86 2.396.575.611 1.286.917 2.135.917.848 0 1.56-.306 2.134-.917.574-.611.86-1.41.86-2.396 0-.974-.286-1.766-.86-2.378-.587-.624-1.298-.936-2.134-.936-.837 0-1.548.312-2.134.936-.575.612-.861 1.404-.861 2.378zm8.752 0c0-1.41.443-2.577 1.33-3.5.898-.924 2.027-1.386 3.388-1.386 1.36 0 2.483.462 3.369 1.385.899.924 1.348 2.09 1.348 3.5 0 1.424-.449 2.59-1.348 3.502-.886.923-2.009 1.385-3.37 1.385-1.36 0-2.49-.462-3.388-1.385-.886-.924-1.329-2.09-1.329-3.501zm1.722 0c0 .986.288 1.785.862 2.396.574.611 1.285.917 2.134.917.848 0 1.56-.306 2.134-.917.574-.611.861-1.41.861-2.396 0-.974-.287-1.766-.861-2.378-.587-.624-1.298-.936-2.134-.936-.836 0-1.548.312-2.134.936-.575.612-.862 1.404-.862 2.378zm13.396 3.314c.848 0 1.541-.306 2.078-.918.561-.611.842-1.41.842-2.396 0-.961-.281-1.753-.842-2.378-.549-.624-1.242-.936-2.078-.936-.824 0-1.517.312-2.078.936-.562.625-.842 1.417-.842 2.378 0 .973.28 1.766.842 2.377.561.624 1.254.936 2.078.936zm-.056 5.615c-.512 0-.993-.068-1.442-.206a4.586 4.586 0 01-1.235-.543 4.033 4.033 0 01-.936-.842 3.548 3.548 0 01-.599-1.086l1.628-.674c.188.537.512.968.974 1.292.461.325.998.487 1.61.487.936 0 1.666-.281 2.19-.843.524-.561.786-1.335.786-2.32v-.88h-.075a3.437 3.437 0 01-1.329 1.16 3.96 3.96 0 01-1.797.412c-1.198 0-2.228-.468-3.089-1.404-.848-.961-1.273-2.122-1.273-3.482 0-1.36.425-2.515 1.273-3.463.861-.949 1.891-1.423 3.089-1.423a3.82 3.82 0 011.797.43 3.297 3.297 0 011.329 1.142h.075V7.62h1.647v8.78c0 1.472-.418 2.626-1.254 3.462-.848.849-1.972 1.273-3.369 1.273zm8.445-17.746v13.403h-1.722V3.39h1.722zm6.126 13.703c-1.348 0-2.459-.462-3.332-1.385-.874-.924-1.311-2.09-1.311-3.501 0-1.398.425-2.558 1.273-3.482.849-.936 1.935-1.404 3.258-1.404 1.36 0 2.439.443 3.238 1.33.811.873 1.217 2.102 1.217 3.687l-.019.187h-7.207c.025.899.325 1.623.899 2.172.574.549 1.26.823 2.059.823 1.098 0 1.959-.549 2.583-1.647l1.535.749a4.557 4.557 0 01-1.722 1.815c-.724.437-1.548.656-2.471.656zm-2.752-5.99h5.26a2.237 2.237 0 00-.786-1.573c-.462-.424-1.086-.637-1.872-.637-.649 0-1.21.2-1.685.6-.461.399-.767.935-.917 1.61zm16.648-7.862c.624 0 1.136.105 1.535.317l-.468 1.517a2.226 2.226 0 00-1.011-.225c-.424 0-.773.15-1.048.45-.262.286-.393.673-.393 1.16v1.16h2.396v1.573h-2.396v7.6h-1.722v-7.6h-1.723V7.62h1.723V6.29c0-.91.287-1.647.861-2.208.586-.562 1.335-.843 2.246-.843zm1.571 8.966c0-1.41.443-2.577 1.329-3.5.898-.924 2.028-1.386 3.388-1.386 1.36 0 2.483.462 3.369 1.385.899.924 1.348 2.09 1.348 3.5 0 1.424-.449 2.59-1.348 3.502-.886.923-2.009 1.385-3.369 1.385-1.36 0-2.49-.462-3.388-1.385-.886-.924-1.329-2.09-1.329-3.501zm1.722 0c0 .986.287 1.785.861 2.396.574.611 1.285.917 2.134.917s1.56-.306 2.134-.917c.574-.611.861-1.41.861-2.396 0-.974-.287-1.766-.861-2.378-.587-.624-1.298-.936-2.134-.936-.836 0-1.548.312-2.134.936-.574.612-.861 1.404-.861 2.378zm10.816 4.586h-1.722V7.62h1.647v1.497h.075c.175-.487.53-.898 1.067-1.235.549-.35 1.086-.525 1.61-.525.499 0 .924.075 1.273.225l-.524 1.666c-.212-.087-.549-.13-1.011-.13-.649 0-1.217.261-1.704.785a2.65 2.65 0 00-.711 1.835v5.054zm17.316-13.403v1.647h-6.103v4.25h5.504v1.61h-5.504v4.249h6.103v1.647h-7.825V3.39h7.825zm5.774 12.131c.849 0 1.542-.306 2.078-.918.562-.611.843-1.41.843-2.396 0-.961-.281-1.753-.843-2.378-.549-.624-1.242-.936-2.078-.936-.823 0-1.516.312-2.078.936-.561.625-.842 1.417-.842 2.378 0 .973.281 1.766.842 2.377.562.624 1.255.936 2.078.936zm-.28 1.572c-1.199 0-2.228-.474-3.089-1.423-.849-.96-1.273-2.115-1.273-3.463 0-1.348.424-2.502 1.273-3.463.861-.949 1.89-1.423 3.089-1.423a3.9 3.9 0 011.834.43c.562.288.992.668 1.292 1.142h.075l-.075-1.272V3.389h1.722v13.403h-1.647V15.52h-.075c-.3.474-.73.855-1.292 1.142a3.9 3.9 0 01-1.834.43zm14.997-.3h-1.647V15.52h-.075c-.262.45-.668.824-1.217 1.123-.536.3-1.098.45-1.685.45-1.123 0-1.99-.319-2.602-.955-.599-.649-.898-1.566-.898-2.752V7.62h1.722v5.653c.038 1.498.793 2.246 2.265 2.246.687 0 1.261-.274 1.722-.823.462-.562.693-1.23.693-2.003V7.62h1.722v9.172zm6.199.3c-1.361 0-2.49-.462-3.389-1.385-.886-.949-1.329-2.116-1.329-3.501 0-1.41.443-2.577 1.329-3.5.899-.924 2.028-1.386 3.389-1.386.936 0 1.753.237 2.452.711.699.462 1.223 1.105 1.572 1.929l-1.572.655c-.487-1.148-1.342-1.723-2.565-1.723-.786 0-1.466.319-2.04.955-.562.637-.843 1.423-.843 2.359 0 .936.281 1.722.843 2.359.574.636 1.254.954 2.04.954 1.261 0 2.147-.574 2.658-1.722l1.535.655a4.143 4.143 0 01-1.591 1.947c-.711.462-1.541.693-2.489.693zm6.749-3.108c0 .45.188.824.562 1.123.387.3.836.45 1.348.45.724 0 1.366-.269 1.928-.805.574-.537.861-1.167.861-1.89-.537-.425-1.285-.637-2.246-.637-.699 0-1.286.168-1.76.505-.462.337-.693.755-.693 1.254zm2.228-6.664c1.273 0 2.278.343 3.014 1.03.736.674 1.104 1.603 1.104 2.789v5.653h-1.647V15.52h-.075c-.711 1.049-1.66 1.573-2.845 1.573-1.011 0-1.86-.3-2.546-.899-.674-.599-1.011-1.348-1.011-2.246 0-.949.356-1.704 1.067-2.265.724-.562 1.685-.843 2.883-.843 1.023 0 1.866.188 2.527.562v-.393c0-.6-.237-1.105-.711-1.516a2.42 2.42 0 00-1.666-.637c-.961 0-1.723.406-2.284 1.217l-1.516-.955c.836-1.198 2.071-1.797 3.706-1.797zm9.51 9.622c-.749 0-1.373-.23-1.872-.693-.487-.461-.737-1.104-.749-1.928V9.192h-1.61V7.62h1.61V4.812h1.722V7.62h2.247v1.572h-2.247v4.568c0 .611.119 1.03.356 1.254.237.212.505.318.805.318a2 2 0 00.393-.037 2.61 2.61 0 00.374-.131l.543 1.535c-.449.162-.973.243-1.572.243zm5.305-12.486c0 .337-.119.624-.356.861a1.172 1.172 0 01-.861.356c-.337 0-.624-.119-.861-.356a1.174 1.174 0 01-.356-.861c0-.337.119-.624.356-.861s.524-.356.861-.356c.337 0 .624.119.861.356s.356.524.356.86zm-.356 3.164v9.172h-1.722V7.62h1.722zm1.626 4.586c0-1.41.443-2.577 1.329-3.5.899-.924 2.028-1.386 3.388-1.386 1.361 0 2.484.462 3.37 1.385.898.924 1.348 2.09 1.348 3.5 0 1.424-.45 2.59-1.348 3.502-.886.923-2.009 1.385-3.37 1.385-1.36 0-2.489-.462-3.388-1.385-.886-.924-1.329-2.09-1.329-3.501zm1.722 0c0 .986.287 1.785.861 2.396.574.611 1.286.917 2.134.917.849 0 1.56-.306 2.134-.917.574-.611.861-1.41.861-2.396 0-.974-.287-1.766-.861-2.378-.586-.624-1.298-.936-2.134-.936-.836 0-1.547.312-2.134.936-.574.612-.861 1.404-.861 2.378zm9.094-4.586h1.648v1.272h.074c.263-.449.662-.823 1.199-1.123a3.51 3.51 0 011.703-.449c1.123 0 1.984.324 2.583.973.612.637.918 1.548.918 2.734v5.765h-1.723V11.14c-.037-1.498-.792-2.247-2.265-2.247-.686 0-1.26.281-1.722.843-.462.549-.693 1.21-.693 1.984v5.073h-1.722V7.62z" opacity=".8" fill="#5F6368"/><path d="M51.434 24.482a25.48 25.48 0 00-.348-4.161H30.37v8.268h11.86c-.531 2.713-2.09 5.004-4.4 6.563v5.5h7.077c4.143-3.832 6.526-9.479 6.526-16.17z" fill="#4285F4"/><path d="M30.37 46c5.939 0 10.907-1.98 14.537-5.334l-7.076-5.5c-1.98 1.32-4.492 2.126-7.462 2.126-5.738 0-10.596-3.868-12.337-9.092h-7.296v5.664C14.347 41.051 21.77 46 30.369 46z" fill="#34A853"/><path d="M18.03 28.193a12.763 12.763 0 01-.696-4.198c0-1.467.257-2.878.697-4.198v-5.665h-7.296a21.743 21.743 0 000 19.726l7.296-5.665z" fill="#FBBC05"/><path d="M30.37 10.708c3.244 0 6.14 1.118 8.432 3.3l6.27-6.27C41.277 4.182 36.309 2 30.369 2c-8.598 0-16.022 4.95-19.633 12.136l7.296 5.665c1.741-5.225 6.6-9.093 12.337-9.093z" fill="#EA4335"/></svg>